<?xml version="1.0" encoding="iso-8859-1"?>
<!-- Generator: Adobe Illustrator 19.0.0, SVG Export Plug-In . SVG Version: 6.00 Build 0)  -->
<svg version="1.1" id="Layer_1" xmlns="http://www.w3.org/2000/svg" xmlns:xlink="http://www.w3.org/1999/xlink" x="0px" y="0px"
	 viewBox="0 0 512 512" style="enable-background:new 0 0 512 512;" xml:space="preserve">
<circle style="fill:#FF8E31;" cx="256" cy="256" r="256"/>
<path style="fill:#ED7425;" d="M366.999,155.564v-0.044h-0.044c-41.477-0.269-79.803-13.85-110.95-36.69
	c-31.201,22.843-69.535,36.421-111.04,36.69v64.392c0,50.314,19.482,96.036,51.297,130.112c0.084,0.092,0.169,0.174,0.266,0.31
	l8.983,8.94c0.166,0.174,0.351,0.31,0.484,0.484l137.021,137.047c86.067-31.112,150.661-107.039,165.632-199.611L366.999,155.564z"
	/>
<path style="fill:#CEE2F2;" d="M256.008,118.833c-31.183,22.812-69.522,36.388-111.022,36.692v64.371
	c0,76.859,45.489,143.114,111.022,173.274c65.526-30.157,111.007-96.412,111.007-173.274v-64.371
	C325.514,155.22,287.163,141.645,256.008,118.833z"/>
<path style="fill:#FFFFFF;" d="M256.008,118.833c-31.183,22.812-69.522,36.388-111.022,36.692v64.371
	c0,76.859,45.489,143.114,111.022,173.274V118.833z"/>
<path style="fill:#D0E070;" d="M256.008,137.382c-28.795,18.826-61.473,30.003-95.767,32.745v49.769
	c0,65.91,37.356,126.507,95.767,156.326c58.399-29.819,95.744-90.417,95.744-156.326v-49.769
	C317.468,167.383,284.787,156.206,256.008,137.382z"/>
<g>
	<path style="fill:#A6B83D;" d="M164.214,256.801c11.034,50.972,44.513,95.288,91.791,119.419V256.801H164.214z"/>
	<path style="fill:#A6B83D;" d="M347.807,256.801c2.583-12.001,3.945-24.351,3.945-36.908v-49.766
		c-34.286-2.742-66.965-13.921-95.744-32.745v119.421h91.799V256.801z"/>
</g>
<g>
	<path style="fill:#ABBC4C;" d="M340.71,256.794c-10.752,47.027-41.574,88.499-84.71,111.718v7.706
		c47.258-24.141,80.742-68.454,91.776-119.424H340.71L340.71,256.794z"/>
	<path style="fill:#ABBC4C;" d="M167.066,219.904v-43.571c31.514-3.482,62.029-14.054,88.934-30.848v-8.115
		c-28.8,18.842-61.466,30.003-95.77,32.768v49.766c0,12.57,1.408,24.909,4.019,36.89h7.014
		C168.499,244.787,167.066,232.422,167.066,219.904z"/>
</g>
<g>
	<path style="fill:#879A29;" d="M256,368.512v7.706c-1.818-0.922-3.584-1.866-5.35-2.867c-0.077-0.026-0.154-0.077-0.205-0.102
		c-1.459-0.817-2.893-1.638-4.326-2.506c-0.538-0.307-1.075-0.614-1.587-0.947c-0.691-0.41-1.382-0.845-2.048-1.254
		c-0.691-0.435-1.357-0.87-2.022-1.28c-0.154-0.102-0.307-0.205-0.435-0.282c-1.664-1.101-3.302-2.199-4.89-3.328
		c-0.614-0.435-1.254-0.87-1.869-1.331c-1.024-0.717-2.022-1.485-3.021-2.227c-0.742-0.563-1.485-1.152-2.227-1.715
		c-0.717-0.566-1.434-1.126-2.15-1.715c-0.256-0.179-0.512-0.384-0.742-0.589c-0.717-0.586-1.434-1.178-2.15-1.764
		c-0.717-0.614-1.408-1.206-2.099-1.818c-0.666-0.589-1.331-1.152-1.971-1.743c-0.666-0.586-1.306-1.178-1.946-1.792
		c-0.819-0.742-1.613-1.482-2.406-2.253c-0.947-0.845-1.843-1.741-2.765-2.662c-0.64-0.666-1.306-1.331-1.946-1.994
		c-0.64-0.668-1.306-1.357-1.92-2.022c-1.101-1.178-2.176-2.355-3.226-3.561c-0.486-0.509-0.922-1.021-1.357-1.536l-0.026-0.026
		c-1.126-1.28-2.202-2.56-3.277-3.894c-0.614-0.768-1.254-1.536-1.869-2.33c-0.64-0.768-1.254-1.559-1.843-2.355
		c-0.947-1.226-1.894-2.506-2.816-3.812c-0.538-0.742-1.075-1.459-1.562-2.202c-0.051-0.077-0.102-0.156-0.154-0.23
		c-0.563-0.796-1.126-1.587-1.664-2.406c-0.154-0.205-0.282-0.435-0.435-0.64c-0.179-0.256-0.333-0.512-0.512-0.794
		c-0.026-0.028-0.026-0.054-0.051-0.077c-0.794-1.203-1.587-2.432-2.33-3.661c-1.254-1.974-2.458-3.996-3.635-6.067
		c-0.768-1.408-1.536-2.819-2.304-4.224c-1.51-2.839-2.97-5.734-4.301-8.653c-1.306-2.842-2.56-5.706-3.738-8.627
		c-0.051-0.077-0.077-0.177-0.102-0.279c-0.128-0.282-0.23-0.589-0.333-0.873c-0.486-1.203-0.947-2.404-1.382-3.635
		c-0.307-0.845-0.614-1.661-0.896-2.506c-0.589-1.641-1.101-3.277-1.638-4.943c-0.205-0.691-0.435-1.38-0.666-2.074
		c-0.128-0.435-0.256-0.87-0.358-1.306c-0.461-1.485-0.87-2.944-1.254-4.429c-0.128-0.461-0.256-0.919-0.358-1.382
		c-0.538-1.994-0.998-3.994-1.434-5.99c-0.051-0.256-0.128-0.486-0.179-0.717h7.04C182.016,303.821,212.864,345.293,256,368.512z"/>
	<path style="fill:#879A29;" d="M351.744,170.138v49.766c0,1.229-0.028,2.458-0.054,3.686c0,0.563-0.026,1.152-0.026,1.741
		c-0.026,0.947-0.077,1.869-0.128,2.79c-0.077,2.022-0.205,4.019-0.384,6.016c-0.102,1.331-0.23,2.688-0.384,4.019
		c-0.305,3.072-0.714,6.118-1.203,9.165c-0.077,0.563-0.177,1.126-0.279,1.715c-0.131,0.768-0.259,1.51-0.384,2.253
		c-0.128,0.666-0.256,1.331-0.384,1.997c-0.205,0.973-0.407,1.971-0.612,2.944c-0.028,0.205-0.077,0.384-0.131,0.563h-7.066
		c2.765-12.006,4.201-24.371,4.201-36.89v-43.571c-31.491-3.482-62.006-14.054-88.911-30.848v-8.115
		C284.8,156.211,317.466,167.373,351.744,170.138z"/>
</g>
<g>
</g>
<g>
</g>
<g>
</g>
<g>
</g>
<g>
</g>
<g>
</g>
<g>
</g>
<g>
</g>
<g>
</g>
<g>
</g>
<g>
</g>
<g>
</g>
<g>
</g>
<g>
</g>
<g>
</g>
</svg>
