<?xml version="1.0" encoding="iso-8859-1"?>
<!-- Generator: Adobe Illustrator 19.0.0, SVG Export Plug-In . SVG Version: 6.00 Build 0)  -->
<svg version="1.1" id="Layer_1" xmlns="http://www.w3.org/2000/svg" xmlns:xlink="http://www.w3.org/1999/xlink" x="0px" y="0px"
	 viewBox="0 0 512 512" style="enable-background:new 0 0 512 512;" xml:space="preserve">
<circle style="fill:#0575A5;" cx="256" cy="256" r="256"/>
<path style="fill:#025E90;" d="M511.826,262.945L391.16,142.303c-1.17-1.208-2.852-1.974-4.677-1.974H125.545
	c-3.694,0-6.692,3.034-6.692,6.694v168.443c0,1.615,0.586,3.11,1.61,4.285l0.694,0.694l186.386,186.358
	C422.026,483.402,508.6,383.567,511.826,262.945z"/>
<polygon style="fill:#E1EFFA;" points="291.722,366.328 220.252,366.328 229.332,322.138 282.637,322.138 "/>
<polygon style="fill:#CEE2F2;" points="291.722,366.328 282.637,322.138 229.332,322.138 273.508,366.328 "/>
<rect x="201.114" y="366.336" style="fill:#FFFFFF;" width="109.74" height="5.338"/>
<path style="fill:#34495E;" d="M125.532,140.337c-3.681,0-6.671,3.013-6.671,6.679v168.443c0,3.686,2.99,6.679,6.671,6.679h260.943
	c3.663,0,6.669-2.993,6.669-6.679V147.016c0-3.666-3.008-6.679-6.669-6.679H125.532z"/>
<rect x="132.723" y="154.189" style="fill:#CEE2F2;" width="246.554" height="154.112"/>
<rect x="141.696" y="182.912" style="fill:#FFFFFF;" width="228.608" height="116.403"/>
<rect x="132.723" y="154.189" style="fill:#FF8E31;" width="246.554" height="19.763"/>
<g>
	<path style="fill:#FFFFFF;" d="M366.643,164.221c0,1.608-1.313,2.929-2.918,2.929H219.901c-1.605,0-2.929-1.321-2.929-2.929v-0.287
		c0-1.608,1.324-2.929,2.929-2.929h143.823c1.605,0,2.918,1.321,2.918,2.929V164.221z"/>
	<circle style="fill:#FFFFFF;" cx="160.945" cy="164.07" r="3.072"/>
	<path style="fill:#FFFFFF;" d="M181.896,167.15c-1.692,0-3.072-1.382-3.072-3.077c0-1.692,1.38-3.069,3.072-3.069
		c1.687,0,3.059,1.377,3.059,3.069C184.955,165.768,183.58,167.15,181.896,167.15z"/>
	<circle style="fill:#FFFFFF;" cx="202.829" cy="164.07" r="3.072"/>
</g>
<path style="fill:#34495E;" d="M308.887,216.374v-4.698l-3.459-1.172c-0.184-1.052-0.458-2.079-0.814-3.062l2.401-2.755
	l-2.348-4.073l-3.579,0.709c-0.351-0.399-0.707-0.786-1.078-1.167c-0.379-0.366-0.765-0.722-1.165-1.073l0.712-3.581l-4.078-2.345
	l-2.749,2.396c-0.983-0.346-2.007-0.625-3.054-0.822l-1.18-3.448h-4.705l-1.18,3.448c-1.052,0.197-2.071,0.479-3.057,0.822
	l-2.742-2.396l-4.076,2.345l0.709,3.581c-0.399,0.351-0.794,0.709-1.165,1.073c-0.374,0.379-0.735,0.765-1.085,1.167l-3.579-0.701
	l-2.348,4.065l2.399,2.755c-0.351,0.983-0.625,2.01-0.814,3.062l-3.448,1.172v4.698l3.448,1.18c0.189,1.062,0.466,2.079,0.814,3.062
	l-2.399,2.747l2.355,4.073l3.574-0.701l-0.008-0.02c0.351,0.407,0.712,0.801,1.093,1.18c0.379,0.379,0.773,0.745,1.18,1.088
	l-0.724,3.569l4.076,2.353l2.742-2.401c0.988,0.351,2.004,0.627,3.057,0.822l1.18,3.448h4.705l1.18-3.448
	c1.047-0.197,2.074-0.471,3.054-0.822l2.749,2.401l4.078-2.353l-0.712-3.574l-0.015,0.008c0.407-0.346,0.801-0.709,1.18-1.088
	c0.371-0.374,0.727-0.765,1.078-1.167l3.579,0.709l2.348-4.073l-2.401-2.747c0.358-0.983,0.63-2.002,0.814-3.062L308.887,216.374z
	 M286.141,223.427c-5.189,0-9.395-4.214-9.395-9.403c0-5.181,4.206-9.39,9.395-9.39c5.197,0,9.398,4.209,9.398,9.39
	C295.539,219.213,291.341,223.427,286.141,223.427z"/>
<path style="fill:#FF8E31;" d="M276.073,258.248v-7.542l-5.542-1.882c-0.299-1.687-0.742-3.328-1.306-4.915l3.848-4.403
	l-3.771-6.538l-5.742,1.139c-0.566-0.645-1.126-1.265-1.731-1.869c-0.604-0.596-1.224-1.167-1.864-1.72l1.134-5.745L254.556,221
	l-4.406,3.848c-1.582-0.561-3.22-1.011-4.908-1.321l-1.889-5.535h-7.549l-1.882,5.535c-1.684,0.31-3.328,0.758-4.908,1.321
	L224.614,221l-6.538,3.768l1.142,5.745c-0.65,0.556-1.272,1.124-1.871,1.72c-0.589,0.604-1.172,1.224-1.736,1.869l-5.737-1.124
	l-3.771,6.523l3.845,4.403c-0.558,1.587-1.009,3.231-1.311,4.915l-5.535,1.882v7.542l5.535,1.894c0.302,1.7,0.75,3.323,1.311,4.91
	l-3.845,4.398l3.779,6.538l5.732-1.121l-0.013-0.044c0.556,0.653,1.144,1.293,1.748,1.894c0.607,0.612,1.236,1.196,1.902,1.743
	l-1.172,5.724l6.543,3.786l4.401-3.858c1.58,0.571,3.223,1.006,4.908,1.316l1.882,5.532h7.549l1.889-5.532
	c1.687-0.31,3.325-0.745,4.908-1.316l4.406,3.858l6.543-3.786l-1.134-5.732l-0.028,0.008c0.645-0.548,1.285-1.129,1.889-1.743
	c0.602-0.596,1.165-1.224,1.731-1.866l5.742,1.137l3.771-6.538l-3.848-4.398c0.563-1.587,1.006-3.21,1.306-4.91L276.073,258.248z
	 M239.588,262.715c-4.552,0-8.236-3.686-8.236-8.238c0-4.536,3.684-8.223,8.236-8.223c4.549,0,8.23,3.686,8.23,8.223
	C247.818,259.028,244.137,262.715,239.588,262.715z"/>
<path style="fill:#34495E;" d="M239.588,236.772c-9.777,0-17.713,7.936-17.713,17.705c0,9.784,7.936,17.718,17.713,17.718
	c9.787,0,17.708-7.936,17.708-17.718C257.295,244.705,249.375,236.772,239.588,236.772z M239.588,262.433
	c-4.39,0-7.951-3.561-7.951-7.956c0-4.383,3.561-7.944,7.951-7.944c4.396,0,7.944,3.561,7.944,7.944
	C247.529,258.872,243.983,262.433,239.588,262.433z"/>
<g>
</g>
<g>
</g>
<g>
</g>
<g>
</g>
<g>
</g>
<g>
</g>
<g>
</g>
<g>
</g>
<g>
</g>
<g>
</g>
<g>
</g>
<g>
</g>
<g>
</g>
<g>
</g>
<g>
</g>
</svg>
