<?xml version="1.0" encoding="iso-8859-1"?>
<!-- Generator: Adobe Illustrator 19.0.0, SVG Export Plug-In . SVG Version: 6.00 Build 0)  -->
<svg version="1.1" id="Layer_1" xmlns="http://www.w3.org/2000/svg" xmlns:xlink="http://www.w3.org/1999/xlink" x="0px" y="0px"
	 viewBox="0 0 512 512" style="enable-background:new 0 0 512 512;" xml:space="preserve">
<path style="fill:#FF8E31;" d="M512,256.003c0,141.381-114.614,255.995-256,255.995c-141.389,0-256-114.614-256-255.995
	c0-141.389,114.611-256,256-256C397.386,0.003,512,114.614,512,256.003z"/>
<path style="fill:#ED7425;" d="M506.719,307.932L394.424,195.661c-0.072-0.113-0.182-0.182-0.294-0.294l-3.837-3.843
	c-0.108-0.105-0.184-0.218-0.289-0.287c-11.633-10.57-27.064-17.011-44.001-17.011c-13.189,0-25.475,3.919-35.763,10.647l0,0
	l-52.408-52.408c-0.512-0.512-1.208-0.773-1.866-0.773c-0.655,0-1.318,0.261-1.866,0.773c-0.512,0.507-0.768,1.167-0.768,1.861
	v49.702h-0.95c-1.172,0-2.381,0.435-3.254,1.357c-0.881,0.878-1.352,2.079-1.352,3.215v11.812h-29.404
	c-11.96-15.908-30.973-26.189-52.372-26.189c-2.01,0-3.988,0.125-5.949,0.302c-0.561,0.049-1.114,0.11-1.667,0.182
	c-1.585,0.182-3.149,0.422-4.695,0.717c-0.389,0.069-0.788,0.125-1.172,0.21c-1.633,0.338-3.249,0.732-4.838,1.188l-0.069,0.077
	c-27.172,7.949-47.03,33.014-47.03,62.751c0,2.964,0.182,5.893,0.586,8.745c0,0.069,0.036,0.182,0.036,0.253
	c0.113,0.914,0.256,1.833,0.438,2.747c0,0.105,0.036,0.182,0.036,0.287c0.187,0.878,0.369,1.756,0.55,2.634
	c0.036,0.077,0.036,0.113,0.036,0.148c0.182,0.878,0.44,1.72,0.66,2.598c0,0.069,0.036,0.148,0.069,0.253v0.077
	c0.479,1.644,0.991,3.215,1.572,4.826v0.036l21.391,66.158c1.503,4.608,3.991,8.924,7.501,12.541
	c0.253,0.294,0.548,0.589,0.842,0.842l166.259,166.259C403.745,489.938,485.668,410.084,506.719,307.932z"/>
<rect x="194.13" y="200.397" style="fill:#34495E;" width="123.674" height="78.518"/>
<g>
	<path style="fill:#0575A5;" d="M166.006,174.226c-36.142,0-65.436,29.294-65.436,65.436c0,2.957,0.205,5.878,0.584,8.737
		c0.008,0.084,0.026,0.169,0.033,0.253c0.125,0.919,0.269,1.825,0.438,2.739c0.013,0.1,0.036,0.189,0.049,0.294
		c0.169,0.893,0.348,1.777,0.563,2.65c0.005,0.049,0.013,0.092,0.02,0.133c0.197,0.87,0.422,1.728,0.66,2.586
		c0.013,0.084,0.041,0.169,0.054,0.261l0.028,0.077c0.461,1.631,0.975,3.238,1.559,4.818l0.008,0.044l21.391,66.15
		c2.051,6.362,6.065,12.157,11.884,16.392c5.814,4.227,12.564,6.264,19.244,6.264h8.919c8.364,0,16.74-3.195,23.135-9.58
		c6.38-6.397,9.58-14.771,9.58-23.14v-22.006c19.551-11.315,32.707-32.453,32.707-56.668
		C231.427,203.52,202.14,174.226,166.006,174.226z"/>
	<path style="fill:#0575A5;" d="M345.987,174.226c36.145,0,65.441,29.294,65.441,65.436c0,2.957-0.205,5.878-0.586,8.737
		c-0.02,0.084-0.028,0.169-0.041,0.253c-0.12,0.919-0.271,1.825-0.422,2.739c-0.026,0.1-0.054,0.189-0.069,0.294
		c-0.159,0.893-0.346,1.777-0.538,2.65c-0.018,0.049-0.026,0.092-0.036,0.133c-0.2,0.87-0.417,1.728-0.658,2.586
		c-0.028,0.084-0.044,0.169-0.064,0.261l-0.026,0.077c-0.458,1.631-0.98,3.238-1.551,4.818l-0.018,0.044l-21.396,66.15
		c-2.045,6.362-6.06,12.157-11.878,16.392c-5.811,4.227-12.557,6.264-19.246,6.264h-8.914c-8.374,0-16.742-3.195-23.135-9.58
		c-6.382-6.397-9.572-14.771-9.572-23.14v-22.006c-19.566-11.315-32.717-32.453-32.717-56.668
		C280.563,203.52,309.857,174.226,345.987,174.226z"/>
</g>
<g>
	<polygon style="fill:#FFFFFF;" points="164.398,239.662 154.578,249.464 131.681,249.464 131.681,229.842 154.578,229.842 	"/>
	<polygon style="fill:#FFFFFF;" points="167.667,239.662 177.485,249.464 200.387,249.464 200.387,229.842 177.485,229.842 	"/>
	<polygon style="fill:#FFFFFF;" points="166.034,238.019 156.214,228.206 156.214,205.304 175.849,205.304 175.849,228.206 	"/>
	<polygon style="fill:#FFFFFF;" points="166.034,241.29 156.214,251.108 156.214,274.004 175.849,274.004 175.849,251.108 	"/>
	<path style="fill:#FFFFFF;" d="M355.781,215.114c0,5.422-4.401,9.818-9.825,9.818c-5.409,0-9.807-4.398-9.807-9.818
		c0-5.422,4.398-9.812,9.807-9.812C351.38,205.304,355.781,209.692,355.781,215.114z"/>
	<path style="fill:#FFFFFF;" d="M321.428,229.842c5.414,0,9.815,4.388,9.815,9.818c0,5.414-4.401,9.805-9.815,9.805
		c-5.422,0-9.818-4.39-9.818-9.805C311.611,234.232,316.004,229.842,321.428,229.842z"/>
	<path style="fill:#FFFFFF;" d="M336.148,264.192c0-5.422,4.398-9.812,9.807-9.812c5.425,0,9.825,4.388,9.825,9.812
		c0,5.414-4.401,9.812-9.825,9.812C340.544,274.004,336.148,269.606,336.148,264.192z"/>
	<path style="fill:#FFFFFF;" d="M370.499,249.464c-5.425,0-9.807-4.39-9.807-9.805c0-5.43,4.383-9.818,9.807-9.818
		c5.42,0,9.82,4.388,9.82,9.818C380.319,245.074,375.918,249.464,370.499,249.464z"/>
</g>
<g>
	<path style="fill:#34495E;" d="M166.034,290.038c-27.786,0-50.378-22.6-50.378-50.376c0-27.791,22.589-50.386,50.378-50.386
		c27.776,0,50.383,22.595,50.383,50.386C216.417,267.438,193.81,290.038,166.034,290.038z M166.034,191.89
		c-26.337,0-47.772,21.427-47.772,47.772c0,26.33,21.435,47.757,47.772,47.757c26.335,0,47.762-21.427,47.762-47.757
		C213.796,213.317,192.369,191.89,166.034,191.89z"/>
	<path style="fill:#34495E;" d="M345.956,290.038c-27.776,0-50.381-22.6-50.381-50.376c0-27.791,22.605-50.386,50.381-50.386
		c27.786,0,50.388,22.595,50.388,50.386C396.342,267.438,373.742,290.038,345.956,290.038z M345.956,191.89
		c-26.324,0-47.759,21.427-47.759,47.772c0,26.33,21.435,47.757,47.759,47.757c26.345,0,47.772-21.427,47.772-47.757
		C393.728,213.317,372.301,191.89,345.956,191.89z"/>
</g>
<g>
	<path style="fill:#FFFFFF;" d="M267.423,230.82c0,1.797-1.475,3.272-3.279,3.272h-16.361c-1.795,0-3.264-1.475-3.264-3.272l0,0
		c0-1.797,1.472-3.267,3.264-3.267h16.361C265.948,227.553,267.423,229.02,267.423,230.82L267.423,230.82z"/>
	<path style="fill:#FFFFFF;" d="M267.423,248.489c0,1.797-1.475,3.267-3.279,3.267h-16.361c-1.795,0-3.264-1.469-3.264-3.267l0,0
		c0-1.797,1.472-3.272,3.264-3.272h16.361C265.948,245.217,267.423,246.692,267.423,248.489L267.423,248.489z"/>
</g>
<path style="fill:#283A4D;" d="M247.782,200.394h16.361v-11.779c0-1.165-0.445-2.345-1.336-3.238
	c-0.886-0.891-2.066-1.341-3.238-1.341h-7.191c-1.183,0-2.355,0.451-3.249,1.341c-0.896,0.893-1.344,2.074-1.344,3.238v11.779
	H247.782z"/>
<path style="fill:#34495E;" d="M257.818,132.46c-0.512-0.512-1.18-0.773-1.853-0.773c-0.668,0-1.334,0.261-1.848,0.773
	c-0.515,0.512-0.765,1.18-0.765,1.853v49.725h5.233v-49.725C258.586,133.64,258.335,132.972,257.818,132.46z"/>
<g>
</g>
<g>
</g>
<g>
</g>
<g>
</g>
<g>
</g>
<g>
</g>
<g>
</g>
<g>
</g>
<g>
</g>
<g>
</g>
<g>
</g>
<g>
</g>
<g>
</g>
<g>
</g>
<g>
</g>
</svg>
