<?xml version="1.0" encoding="iso-8859-1"?>
<!-- Generator: Adobe Illustrator 19.0.0, SVG Export Plug-In . SVG Version: 6.00 Build 0)  -->
<svg version="1.1" id="Layer_1" xmlns="http://www.w3.org/2000/svg" xmlns:xlink="http://www.w3.org/1999/xlink" x="0px" y="0px"
	 viewBox="0 0 512 512" style="enable-background:new 0 0 512 512;" xml:space="preserve">
<circle style="fill:#FF8E31;" cx="256" cy="256" r="256"/>
<path style="fill:#ED7425;" d="M366.922,179.561l-3.587-3.581c-8.044-7.206-18.721-11.594-30.354-11.594
	c-16.161,0-30.387,8.448-38.433,21.174c-12.877-8.778-28.421-13.891-45.128-13.891c-37.412,0-68.831,25.636-77.678,60.229
	c-4.058-0.881-8.302-1.354-12.618-1.354c-32.328,0-58.552,26.186-58.552,58.55c0,16.128,6.546,30.758,17.149,41.364l178.394,178.394
	c102.116-16.077,184.131-92.503,208.463-191.626L366.922,179.561z"/>
<path style="fill:#0684BA;" d="M339.533,251.333c-3.43,0-6.764,0.369-9.981,1.047c0-0.187,0.018-0.348,0.018-0.525
	c0-44.306-35.889-80.187-80.161-80.187c-37.396,0-68.813,25.615-77.668,60.242c-4.065-0.886-8.287-1.37-12.628-1.37
	c-32.328,0-58.537,26.197-58.537,58.534c0,32.325,26.209,58.534,58.537,58.534h180.424c26.583,0,48.138-21.548,48.138-48.141
	C387.674,272.875,366.116,251.333,339.533,251.333z"/>
<path style="fill:#03628A;" d="M387.671,299.469c0-26.593-21.555-48.138-48.138-48.138c-3.43,0-6.764,0.369-9.981,1.047
	c0-0.187,0.018-0.348,0.018-0.525c0-27.551-13.893-51.84-35.036-66.263c-2.516,3.96-4.449,8.312-5.632,12.964
	c-2.317-0.486-4.687-0.75-7.16-0.75c-18.322,0-33.198,14.858-33.198,33.185c0,9.157,3.722,17.508,9.759,23.485l91.899,91.904
	C371.643,341.527,387.671,322.394,387.671,299.469z"/>
<path style="fill:#FFFFFF;" d="M384.115,209.6c-1.938,0-3.83,0.2-5.652,0.591c0-0.118,0-0.2,0-0.305
	c0-25.121-20.365-45.499-45.484-45.499c-21.228,0-39.045,14.543-44.073,34.186c-2.307-0.502-4.71-0.781-7.165-0.781
	c-18.34,0-33.216,14.868-33.216,33.219c0,18.353,14.876,33.206,33.216,33.206h102.372c15.089,0,27.315-12.224,27.315-27.308
	C411.43,221.814,399.201,209.6,384.115,209.6z"/>
<g>
</g>
<g>
</g>
<g>
</g>
<g>
</g>
<g>
</g>
<g>
</g>
<g>
</g>
<g>
</g>
<g>
</g>
<g>
</g>
<g>
</g>
<g>
</g>
<g>
</g>
<g>
</g>
<g>
</g>
</svg>
