<?xml version="1.0" encoding="iso-8859-1"?>
<!-- Generator: Adobe Illustrator 19.0.0, SVG Export Plug-In . SVG Version: 6.00 Build 0)  -->
<svg version="1.1" id="Layer_1" xmlns="http://www.w3.org/2000/svg" xmlns:xlink="http://www.w3.org/1999/xlink" x="0px" y="0px"
	 viewBox="0 0 512 512" style="enable-background:new 0 0 512 512;" xml:space="preserve">
<circle style="fill:#C1D354;" cx="256" cy="256" r="256"/>
<path style="fill:#9DB138;" d="M511.818,263.188L391.941,143.332c-0.077-0.084-0.12-0.164-0.205-0.248l-1.347-1.349
	c-0.085-0.082-0.169-0.123-0.246-0.205c-1.062-0.737-2.376-1.149-3.722-1.149H125.586c-3.681,0-6.666,3.031-6.666,6.671v168.392
	c0,1.226,0.323,2.371,0.942,3.356l2.373,2.371l185.577,185.577C422.083,483.261,508.48,383.611,511.818,263.188z"/>
<polygon style="fill:#CEE2F2;" points="291.704,366.277 220.262,366.277 229.345,322.104 282.632,322.104 "/>
<polygon style="fill:#A6C8E6;" points="291.704,366.277 282.632,322.104 229.345,322.104 273.503,366.277 "/>
<rect x="201.139" y="366.285" style="fill:#F2F9FF;" width="109.701" height="5.338"/>
<path style="fill:#34495E;" d="M125.586,140.38c-3.676,0-6.671,3.011-6.671,6.676v168.379c0,3.676,2.995,6.666,6.671,6.666h260.836
	c3.658,0,6.666-2.993,6.666-6.666V147.057c0-3.666-3.008-6.676-6.666-6.676H125.586z"/>
<rect x="132.769" y="154.24" style="fill:#FFFFFF;" width="246.451" height="154.035"/>
<g>
	<rect x="146.458" y="168.451" style="fill:#0684BA;" width="10.788" height="3.617"/>
	<rect x="146.458" y="185.677" style="fill:#0684BA;" width="10.788" height="3.628"/>
</g>
<g>
	<rect x="160.026" y="168.451" style="fill:#34495E;" width="12.293" height="3.617"/>
	<rect x="160.026" y="185.677" style="fill:#34495E;" width="38.925" height="3.628"/>
</g>
<g>
	<rect x="173.732" y="168.451" style="fill:#0684BA;" width="9.874" height="3.617"/>
	<rect x="157.235" y="175.002" style="fill:#0684BA;" width="17.144" height="3.625"/>
	<rect x="157.235" y="205.338" style="fill:#0684BA;" width="17.144" height="3.625"/>
	<rect x="157.235" y="244.582" style="fill:#0684BA;" width="17.144" height="3.617"/>
	<rect x="157.235" y="211.891" style="fill:#0684BA;" width="7.066" height="3.625"/>
	<rect x="178.432" y="205.338" style="fill:#0684BA;" width="44.833" height="3.625"/>
	<rect x="175.565" y="224.973" style="fill:#0684BA;" width="15.598" height="3.62"/>
	<rect x="176.044" y="238.08" style="fill:#0684BA;" width="15.598" height="3.615"/>
	<rect x="176.044" y="290.406" style="fill:#0684BA;" width="15.598" height="3.615"/>
</g>
<g>
	<rect x="195.251" y="224.973" style="fill:#C1D354;" width="25.329" height="3.62"/>
	<rect x="195.251" y="238.08" style="fill:#C1D354;" width="10.998" height="3.615"/>
	<rect x="188.595" y="251.136" style="fill:#C1D354;" width="12.928" height="3.622"/>
	<rect x="188.595" y="277.325" style="fill:#C1D354;" width="24.824" height="3.628"/>
	<rect x="196.685" y="290.406" style="fill:#C1D354;" width="9.152" height="3.615"/>
	<rect x="259.635" y="264.218" style="fill:#C1D354;" width="12.928" height="3.612"/>
</g>
<rect x="225.587" y="224.973" style="fill:#34495E;" width="13.957" height="3.62"/>
<rect x="242.202" y="224.973" style="fill:#C1D354;" width="6.605" height="3.62"/>
<g>
	<rect x="228.352" y="205.338" style="fill:#34495E;" width="32.228" height="3.625"/>
	<rect x="267.136" y="205.338" style="fill:#34495E;" width="19.743" height="3.625"/>
	<rect x="157.235" y="192.23" style="fill:#34495E;" width="25.592" height="3.63"/>
	<rect x="157.235" y="198.784" style="fill:#34495E;" width="36.285" height="3.612"/>
	<rect x="166.912" y="211.891" style="fill:#34495E;" width="41.595" height="3.625"/>
	<rect x="166.912" y="257.69" style="fill:#34495E;" width="41.595" height="3.622"/>
	<rect x="180.096" y="264.218" style="fill:#34495E;" width="25.06" height="3.612"/>
	<rect x="180.096" y="283.878" style="fill:#34495E;" width="12.045" height="3.625"/>
	<rect x="205.85" y="283.878" style="fill:#34495E;" width="25.293" height="3.625"/>
	<rect x="213.427" y="290.406" style="fill:#34495E;" width="17.708" height="3.615"/>
	<rect x="217.508" y="264.218" style="fill:#34495E;" width="39.619" height="3.612"/>
	<rect x="217.508" y="277.325" style="fill:#34495E;" width="39.619" height="3.628"/>
</g>
<g>
	<rect x="166.912" y="218.445" style="fill:#0684BA;" width="5.742" height="3.622"/>
	<rect x="166.912" y="231.526" style="fill:#0684BA;" width="14.702" height="3.625"/>
	<rect x="166.912" y="251.136" style="fill:#0684BA;" width="14.702" height="3.622"/>
	<rect x="166.912" y="264.218" style="fill:#0684BA;" width="9.871" height="3.612"/>
	<rect x="166.912" y="277.325" style="fill:#0684BA;" width="16.919" height="3.628"/>
	<rect x="166.912" y="283.878" style="fill:#0684BA;" width="9.121" height="3.625"/>
	<rect x="195.251" y="283.878" style="fill:#0684BA;" width="7.757" height="3.625"/>
	<rect x="207.923" y="264.218" style="fill:#0684BA;" width="6.643" height="3.612"/>
</g>
<g>
	<rect x="175.565" y="218.445" style="fill:#34495E;" width="9.06" height="3.622"/>
	<rect x="175.565" y="270.771" style="fill:#34495E;" width="25.966" height="3.617"/>
	<rect x="205.312" y="270.771" style="fill:#34495E;" width="20.634" height="3.617"/>
	<rect x="227.021" y="270.771" style="fill:#34495E;" width="45.55" height="3.617"/>
</g>
<rect x="186.138" y="218.445" style="fill:#C1D354;" width="7.38" height="3.622"/>
<rect x="195.251" y="218.445" style="fill:#34495E;" width="25.329" height="3.622"/>
<rect x="210.842" y="211.891" style="fill:#C1D354;" width="7.432" height="3.625"/>
<rect x="225.587" y="211.891" style="fill:#FF8E31;" width="13.957" height="3.625"/>
<rect x="197.402" y="198.784" style="fill:#34495E;" width="36.288" height="3.612"/>
<g>
	<rect x="271.949" y="198.784" style="fill:#FF8E31;" width="11.292" height="3.612"/>
	<rect x="236.186" y="198.784" style="fill:#FF8E31;" width="22.669" height="3.612"/>
</g>
<g>
	<rect x="260.582" y="198.784" style="fill:#C1D354;" width="7.421" height="3.612"/>
	<rect x="285.747" y="198.784" style="fill:#C1D354;" width="7.411" height="3.612"/>
</g>
<rect x="191.181" y="192.23" style="fill:#34495E;" width="39.306" height="3.63"/>
<rect x="184.627" y="192.23" style="fill:#0684BA;" width="4.746" height="3.63"/>
<rect x="176.627" y="175.002" style="fill:#34495E;" width="6.981" height="3.625"/>
<rect x="185.088" y="175.002" style="fill:#C1D354;" width="5.604" height="3.625"/>
<polygon style="fill:#34495E;" points="336.379,255.875 336.379,253.166 335.03,253.166 335.03,251.804 333.668,251.804 
	333.668,250.445 332.301,250.445 332.301,249.083 330.949,249.083 330.949,247.741 329.574,247.741 329.574,246.354 
	328.233,246.354 328.233,245.002 326.871,245.002 326.871,243.638 325.507,243.638 325.507,242.291 324.137,242.291 
	324.137,240.922 322.783,240.922 322.783,239.567 321.413,239.567 321.413,238.203 320.056,238.203 320.056,261.327 
	322.783,261.327 322.783,259.958 324.137,259.958 324.137,258.604 325.507,258.604 325.507,257.231 326.871,257.231 
	326.871,259.958 328.233,259.958 328.233,262.679 329.574,262.679 329.574,264.044 332.301,264.044 332.301,262.679 
	333.668,262.679 333.668,259.958 332.301,259.958 332.301,257.231 330.949,257.231 330.949,255.875 "/>
<g>
</g>
<g>
</g>
<g>
</g>
<g>
</g>
<g>
</g>
<g>
</g>
<g>
</g>
<g>
</g>
<g>
</g>
<g>
</g>
<g>
</g>
<g>
</g>
<g>
</g>
<g>
</g>
<g>
</g>
</svg>
